# Blender 4.0.2
# www.blender.org
o Obraz
v 0.356752 0.490000 0.002000
v -0.356600 0.490000 0.002000
v 0.356752 -0.490000 0.002000
v -0.356600 -0.490000 0.002000
v -0.430673 -0.564073 0.072152
v -0.430673 -0.564073 0.002000
v -0.428673 -0.562073 0.000000
v -0.356600 -0.490000 0.000000
v -0.356600 -0.490000 0.008612
v -0.358600 -0.492000 0.010612
v -0.374200 -0.507600 0.010612
v -0.376159 -0.509559 0.014517
v -0.383800 -0.517200 0.018436
v -0.383996 -0.517396 0.027379
v -0.385820 -0.519220 0.030410
v -0.387818 -0.521219 0.033096
v -0.390165 -0.523565 0.035091
v -0.392976 -0.526376 0.036165
v -0.396134 -0.529535 0.036549
v -0.399467 -0.532868 0.036587
v -0.402608 -0.536008 0.055960
v -0.410433 -0.543833 0.060022
v -0.410912 -0.544312 0.062255
v -0.411378 -0.544779 0.064681
v -0.411819 -0.545220 0.067491
v -0.413198 -0.546599 0.070177
v -0.416013 -0.549413 0.072304
v -0.419544 -0.552945 0.074152
v -0.428673 -0.562073 0.074152
v 0.430825 -0.564073 0.072152
v 0.430825 -0.564073 0.002000
v 0.428825 -0.562073 0.000000
v 0.356752 -0.490000 0.000000
v 0.356752 -0.490000 0.008612
v 0.358752 -0.492000 0.010612
v 0.374352 -0.507600 0.010612
v 0.376311 -0.509559 0.014517
v 0.383952 -0.517200 0.018436
v 0.384148 -0.517396 0.027379
v 0.385972 -0.519220 0.030410
v 0.387971 -0.521218 0.033096
v 0.390317 -0.523565 0.035091
v 0.393128 -0.526376 0.036165
v 0.396287 -0.529535 0.036549
v 0.399620 -0.532867 0.036587
v 0.402761 -0.536008 0.055960
v 0.410585 -0.543833 0.060022
v 0.411064 -0.544312 0.062255
v 0.411531 -0.544779 0.064681
v 0.411972 -0.545219 0.067491
v 0.413351 -0.546598 0.070177
v 0.416165 -0.549413 0.072304
v 0.419697 -0.552944 0.074152
v 0.428825 -0.562073 0.074152
v 0.430825 0.564073 0.072152
v 0.430825 0.564073 0.002000
v 0.428825 0.562073 -0.000000
v 0.356752 0.490000 -0.000000
v 0.356752 0.490000 0.008611
v 0.358752 0.492000 0.010611
v 0.374352 0.507600 0.010611
v 0.376311 0.509559 0.014517
v 0.383952 0.517200 0.018436
v 0.384148 0.517396 0.027379
v 0.385972 0.519220 0.030410
v 0.387970 0.521219 0.033096
v 0.390317 0.523565 0.035091
v 0.393128 0.526376 0.036165
v 0.396287 0.529535 0.036549
v 0.399619 0.532868 0.036587
v 0.402760 0.536008 0.055960
v 0.410585 0.543833 0.060022
v 0.411064 0.544312 0.062255
v 0.411531 0.544779 0.064681
v 0.411971 0.545220 0.067491
v 0.413350 0.546599 0.070177
v 0.416165 0.549413 0.072304
v 0.419696 0.552945 0.074152
v 0.428825 0.562073 0.074152
v -0.430673 0.564073 0.072152
v -0.430673 0.564073 0.002000
v -0.428673 0.562073 0.000000
v -0.356600 0.490000 0.000000
v -0.356600 0.490000 0.008612
v -0.358600 0.492000 0.010612
v -0.374200 0.507600 0.010612
v -0.376159 0.509559 0.014517
v -0.383800 0.517200 0.018436
v -0.383996 0.517396 0.027379
v -0.385820 0.519220 0.030410
v -0.387819 0.521218 0.033096
v -0.390165 0.523565 0.035091
v -0.392976 0.526376 0.036165
v -0.396135 0.529535 0.036549
v -0.399468 0.532868 0.036587
v -0.402608 0.536008 0.055960
v -0.410433 0.543833 0.060022
v -0.410912 0.544312 0.062255
v -0.411379 0.544779 0.064681
v -0.411819 0.545219 0.067491
v -0.413199 0.546599 0.070177
v -0.416013 0.549413 0.072304
v -0.419545 0.552945 0.074152
v -0.428673 0.562073 0.074152
v -0.356600 0.490000 -0.000000
v 0.356752 0.490000 -0.000000
v -0.356600 -0.490000 -0.000000
v 0.356752 -0.490000 -0.000000
v 0.430825 0.564073 0.072152
v 0.430825 0.564073 0.002000
v 0.428825 0.562073 -0.000000
v 0.356752 0.490000 -0.000000
v 0.356752 0.490000 0.008611
v 0.358752 0.492000 0.010611
v 0.374352 0.507600 0.010611
v 0.376311 0.509559 0.014517
v 0.383952 0.517200 0.018436
v 0.384148 0.517396 0.027379
v 0.385972 0.519220 0.030410
v 0.387970 0.521219 0.033096
v 0.390317 0.523565 0.035091
v 0.393128 0.526376 0.036165
v 0.396287 0.529535 0.036549
v 0.399619 0.532868 0.036587
v 0.402760 0.536008 0.055960
v 0.410585 0.543833 0.060022
v 0.411064 0.544312 0.062255
v 0.411531 0.544779 0.064681
v 0.411971 0.545220 0.067491
v 0.413350 0.546599 0.070177
v 0.416165 0.549413 0.072304
v 0.419696 0.552945 0.074152
v 0.428825 0.562073 0.074152
v -0.430673 0.564073 0.072152
v -0.430673 0.564073 0.002000
v -0.428673 0.562073 0.000000
v -0.356600 0.490000 0.000000
v -0.356600 0.490000 0.008612
v -0.358600 0.492000 0.010612
v -0.374200 0.507600 0.010612
v -0.376159 0.509559 0.014517
v -0.383800 0.517200 0.018436
v -0.383996 0.517396 0.027379
v -0.385820 0.519220 0.030410
v -0.387819 0.521218 0.033096
v -0.390165 0.523565 0.035091
v -0.392976 0.526376 0.036165
v -0.396135 0.529535 0.036549
v -0.399468 0.532868 0.036587
v -0.402608 0.536008 0.055960
v -0.410433 0.543833 0.060022
v -0.410912 0.544312 0.062255
v -0.411379 0.544779 0.064681
v -0.411819 0.545219 0.067491
v -0.413199 0.546599 0.070177
v -0.416013 0.549413 0.072304
v -0.419545 0.552945 0.074152
v -0.428673 0.562073 0.074152
v -0.430673 -0.564073 0.072152
v -0.430673 -0.564073 0.002000
v -0.428673 -0.562073 0.000000
v -0.356600 -0.490000 0.000000
v -0.356600 -0.490000 0.008612
v -0.358600 -0.492000 0.010612
v -0.374200 -0.507600 0.010612
v -0.376159 -0.509559 0.014517
v -0.383800 -0.517200 0.018436
v -0.383996 -0.517396 0.027379
v -0.385820 -0.519220 0.030410
v -0.387818 -0.521219 0.033096
v -0.390165 -0.523565 0.035091
v -0.392976 -0.526376 0.036165
v -0.396134 -0.529535 0.036549
v -0.399467 -0.532868 0.036587
v -0.402608 -0.536008 0.055960
v -0.410433 -0.543833 0.060022
v -0.410912 -0.544312 0.062255
v -0.411378 -0.544779 0.064681
v -0.411819 -0.545220 0.067491
v -0.413198 -0.546599 0.070177
v -0.416013 -0.549413 0.072304
v -0.419544 -0.552945 0.074152
v -0.428673 -0.562073 0.074152
v 0.430825 -0.564073 0.072152
v 0.430825 -0.564073 0.002000
v 0.428825 -0.562073 0.000000
v 0.356752 -0.490000 0.000000
v 0.356752 -0.490000 0.008612
v 0.358752 -0.492000 0.010612
v 0.374352 -0.507600 0.010612
v 0.376311 -0.509559 0.014517
v 0.383952 -0.517200 0.018436
v 0.384148 -0.517396 0.027379
v 0.385972 -0.519220 0.030410
v 0.387971 -0.521218 0.033096
v 0.390317 -0.523565 0.035091
v 0.393128 -0.526376 0.036165
v 0.396287 -0.529535 0.036549
v 0.399620 -0.532867 0.036587
v 0.402761 -0.536008 0.055960
v 0.410585 -0.543833 0.060022
v 0.411064 -0.544312 0.062255
v 0.411531 -0.544779 0.064681
v 0.411972 -0.545219 0.067491
v 0.413351 -0.546598 0.070177
v 0.416165 -0.549413 0.072304
v 0.419697 -0.552944 0.074152
v 0.428825 -0.562073 0.074152
vn -0.0000 -0.0000 1.0000
vn -0.0000 -0.9996 0.0276
vn -0.0000 -0.9996 -0.0277
vn -0.0000 -0.0295 -0.9996
vn -0.0000 -0.0000 -1.0000
vn -0.0000 1.0000 -0.0000
vn -0.0000 0.7071 0.7071
vn -0.0000 0.8939 0.4484
vn -0.0000 0.6304 0.7763
vn -0.0000 0.6303 0.7764
vn -0.0000 0.8555 0.5177
vn -0.0000 0.9860 0.1666
vn -0.0000 0.8312 0.5559
vn -0.0000 0.7327 0.6806
vn -0.0000 0.5110 0.8596
vn -0.0000 0.2368 0.9716
vn -0.0000 0.0646 0.9979
vn -0.0000 0.9490 0.3152
vn -0.0000 0.9871 0.1600
vn -0.0000 0.4607 0.8875
vn -0.0000 0.9777 0.2098
vn -0.0000 0.9800 0.1989
vn -0.0000 0.9800 0.1990
vn -0.0000 0.9853 0.1708
vn -0.0000 0.9853 0.1707
vn -0.0000 0.9493 0.3145
vn -0.0000 0.7536 0.6574
vn -0.0000 0.5305 0.8477
vn -0.0000 0.4636 0.8861
vn -0.0000 -0.7071 0.7071
vn 0.9996 -0.0000 0.0276
vn 0.9996 -0.0000 -0.0276
vn 0.0288 -0.0000 -0.9996
vn -1.0000 -0.0000 -0.0000
vn -0.7071 -0.0000 0.7071
vn -0.8938 -0.0000 0.4484
vn -0.6307 -0.0000 0.7760
vn -0.6307 -0.0000 0.7761
vn -0.8551 -0.0000 0.5184
vn -0.9860 -0.0000 0.1666
vn -0.8312 -0.0000 0.5559
vn -0.7328 -0.0000 0.6805
vn -0.5111 -0.0000 0.8595
vn -0.2369 -0.0000 0.9715
vn -0.0647 -0.0000 0.9979
vn -0.9489 -0.0000 0.3155
vn -0.9871 -0.0000 0.1600
vn -0.4607 -0.0000 0.8875
vn -0.9777 -0.0000 0.2098
vn -0.9800 -0.0000 0.1990
vn -0.9800 -0.0000 0.1989
vn -0.9853 -0.0000 0.1708
vn -0.9853 -0.0000 0.1706
vn -0.9493 -0.0000 0.3145
vn -0.7537 -0.0000 0.6572
vn -0.6029 -0.0000 0.7978
vn -0.4636 -0.0000 0.8861
vn 0.7071 -0.0000 0.7071
vn -0.0000 0.9996 0.0277
vn -0.0000 0.9996 -0.0277
vn -0.0000 0.9996 -0.0276
vn -0.0000 0.9996 0.0276
vn -0.0000 0.0295 -0.9996
vn -0.0000 -1.0000 -0.0000
vn -0.0000 -0.8939 0.4484
vn -0.0000 -0.6304 0.7763
vn -0.0000 -0.8555 0.5177
vn -0.0000 -0.9860 0.1667
vn -0.0000 -0.9860 0.1666
vn -0.0000 -0.8312 0.5559
vn -0.0000 -0.7327 0.6805
vn -0.0000 -0.5109 0.8596
vn -0.0000 -0.2368 0.9716
vn -0.0000 -0.0646 0.9979
vn -0.0000 -0.9490 0.3152
vn -0.0000 -0.9871 0.1600
vn -0.0000 -0.4607 0.8875
vn -0.0000 -0.9777 0.2099
vn -0.0000 -0.9800 0.1989
vn -0.0000 -0.9800 0.1990
vn -0.0000 -0.9853 0.1707
vn -0.0000 -0.9853 0.1708
vn -0.0000 -0.9493 0.3145
vn -0.0000 -0.7536 0.6574
vn -0.0000 -0.5305 0.8477
vn -0.0000 -0.4636 0.8861
vn -0.9996 -0.0000 0.0276
vn -0.9996 -0.0000 -0.0277
vn -0.9996 -0.0000 -0.0276
vn -0.0288 -0.0000 -0.9996
vn 1.0000 -0.0000 -0.0000
vn 0.8939 -0.0000 0.4484
vn 0.6307 -0.0000 0.7760
vn 0.6307 -0.0000 0.7761
vn 0.8551 -0.0000 0.5184
vn 0.9860 -0.0000 0.1666
vn 0.8312 -0.0000 0.5559
vn 0.7328 -0.0000 0.6805
vn 0.5111 -0.0000 0.8595
vn 0.2369 -0.0000 0.9715
vn 0.0647 -0.0000 0.9979
vn 0.9489 -0.0000 0.3155
vn 0.9871 -0.0000 0.1600
vn 0.4607 -0.0000 0.8875
vn 0.9777 -0.0000 0.2098
vn 0.9800 -0.0000 0.1990
vn 0.9853 -0.0000 0.1708
vn 0.9493 -0.0000 0.3145
vn 0.7537 -0.0000 0.6572
vn 0.5306 -0.0000 0.8476
vn 0.4636 -0.0000 0.8861
vt 0.872254 0.988602
vt 0.132184 0.988602
vt 0.132184 0.015680
vt 0.872253 0.015679
vt 0.628452 0.699766
vt 0.573914 0.699766
vt 0.573914 0.030000
vt 0.628452 0.030000
vt 0.571715 0.698211
vt 0.571715 0.031555
vt 0.515682 0.642178
vt 0.515682 0.087588
vt 0.727158 0.642178
vt 0.720463 0.642178
vt 0.720463 0.087587
vt 0.727158 0.087587
vt 0.718264 0.643733
vt 0.718265 0.086033
vt 0.706136 0.655861
vt 0.706137 0.073905
vt 0.702739 0.657384
vt 0.702739 0.072382
vt 0.696062 0.663325
vt 0.696064 0.066441
vt 0.689108 0.663477
vt 0.689111 0.066289
vt 0.686359 0.664895
vt 0.686359 0.064871
vt 0.683756 0.666449
vt 0.683756 0.063317
vt 0.681361 0.668273
vt 0.681361 0.061493
vt 0.679022 0.670458
vt 0.679022 0.059308
vt 0.676548 0.672914
vt 0.676548 0.056852
vt 0.673957 0.675506
vt 0.673957 0.054261
vt 0.658698 0.677947
vt 0.658699 0.051819
vt 0.651844 0.684030
vt 0.651845 0.045736
vt 0.650068 0.684403
vt 0.650069 0.045363
vt 0.648148 0.684766
vt 0.648149 0.045000
vt 0.645937 0.685108
vt 0.645937 0.044658
vt 0.643589 0.686181
vt 0.643590 0.043586
vt 0.640847 0.688368
vt 0.640847 0.041398
vt 0.637748 0.691114
vt 0.637748 0.038652
vt 0.630651 0.698211
vt 0.630651 0.031555
vt 0.142770 0.907070
vt 0.088232 0.907070
vt 0.088232 0.030000
vt 0.142771 0.030000
vt 0.086033 0.905515
vt 0.086033 0.031555
vt 0.030000 0.849482
vt 0.030000 0.087588
vt 0.241477 0.849482
vt 0.234782 0.849482
vt 0.234782 0.087588
vt 0.241477 0.087588
vt 0.232583 0.851037
vt 0.232583 0.086033
vt 0.220455 0.863165
vt 0.220455 0.073905
vt 0.217058 0.864688
vt 0.217058 0.072382
vt 0.210382 0.870629
vt 0.210382 0.066442
vt 0.203428 0.870781
vt 0.203428 0.066289
vt 0.200677 0.872199
vt 0.200677 0.064871
vt 0.198074 0.873753
vt 0.198075 0.063317
vt 0.195680 0.875577
vt 0.195680 0.061493
vt 0.193340 0.877762
vt 0.193341 0.059308
vt 0.190867 0.880218
vt 0.190867 0.056852
vt 0.188275 0.882809
vt 0.188276 0.054261
vt 0.173017 0.885251
vt 0.173017 0.051819
vt 0.166163 0.891334
vt 0.166163 0.045736
vt 0.164387 0.891707
vt 0.164387 0.045363
vt 0.162466 0.892070
vt 0.162467 0.045001
vt 0.160255 0.892412
vt 0.160255 0.044658
vt 0.157908 0.893485
vt 0.157908 0.043586
vt 0.155165 0.895673
vt 0.155166 0.041398
vt 0.152066 0.898418
vt 0.152067 0.038652
vt 0.144969 0.905515
vt 0.144970 0.031555
vt 0.871294 0.699765
vt 0.816755 0.699765
vt 0.816755 0.030000
vt 0.871293 0.030000
vt 0.814556 0.698211
vt 0.814555 0.031555
vt 0.758523 0.642178
vt 0.758523 0.087588
vt 0.970000 0.642178
vt 0.963305 0.642178
vt 0.963305 0.087588
vt 0.970000 0.087588
vt 0.961106 0.643733
vt 0.961106 0.086033
vt 0.948978 0.655861
vt 0.948978 0.073905
vt 0.945581 0.657384
vt 0.945581 0.072381
vt 0.938904 0.663324
vt 0.938906 0.066441
vt 0.931950 0.663477
vt 0.931952 0.066289
vt 0.929200 0.664895
vt 0.929200 0.064870
vt 0.926597 0.666448
vt 0.926597 0.063317
vt 0.924203 0.668273
vt 0.924203 0.061492
vt 0.921863 0.670458
vt 0.921863 0.059307
vt 0.919389 0.672914
vt 0.919389 0.056851
vt 0.916798 0.675505
vt 0.916798 0.054260
vt 0.901540 0.677947
vt 0.901540 0.051818
vt 0.894686 0.684030
vt 0.894686 0.045735
vt 0.892910 0.684402
vt 0.892910 0.045363
vt 0.890989 0.684765
vt 0.890990 0.045000
vt 0.888778 0.685108
vt 0.888778 0.044657
vt 0.886431 0.686180
vt 0.886431 0.043585
vt 0.883688 0.688368
vt 0.883688 0.041397
vt 0.880589 0.691113
vt 0.880589 0.038652
vt 0.873493 0.698211
vt 0.873493 0.031555
vt 0.371547 0.030000
vt 0.426086 0.030000
vt 0.426086 0.907070
vt 0.371547 0.907070
vt 0.428285 0.031555
vt 0.428285 0.905515
vt 0.484318 0.087588
vt 0.484317 0.849482
vt 0.272841 0.087588
vt 0.279536 0.087588
vt 0.279536 0.849482
vt 0.272841 0.849482
vt 0.281735 0.086033
vt 0.281735 0.851037
vt 0.293863 0.073905
vt 0.293863 0.863165
vt 0.297260 0.072382
vt 0.297260 0.864688
vt 0.303936 0.066441
vt 0.303936 0.870628
vt 0.310890 0.066289
vt 0.310890 0.870781
vt 0.313641 0.064871
vt 0.313641 0.872199
vt 0.316243 0.063317
vt 0.316243 0.873753
vt 0.318638 0.061493
vt 0.318638 0.875577
vt 0.320977 0.059307
vt 0.320977 0.877762
vt 0.323451 0.056852
vt 0.323451 0.880218
vt 0.326043 0.054260
vt 0.326042 0.882809
vt 0.341301 0.051819
vt 0.341301 0.885251
vt 0.348155 0.045735
vt 0.348155 0.891334
vt 0.349931 0.045363
vt 0.349931 0.891706
vt 0.351851 0.045000
vt 0.351851 0.892069
vt 0.354063 0.044657
vt 0.354062 0.892412
vt 0.356410 0.043585
vt 0.356410 0.893484
vt 0.359152 0.041397
vt 0.359152 0.895672
vt 0.362251 0.038652
vt 0.362251 0.898418
vt 0.369348 0.031555
vt 0.369348 0.905515
vt 0.856676 0.995815
vt 0.143324 0.995815
vt 0.143324 0.015815
vt 0.856676 0.015815
s 1
f 1/1/1 2/2/1 4/3/1 3/4/1
f 159/5/2 160/6/3 185/7/3 184/8/2
f 160/6/3 161/9/4 186/10/4 185/7/3
f 161/9/4 162/11/5 187/12/5 186/10/4
f 162/13/6 163/14/6 188/15/6 187/16/6
f 163/14/7 164/17/7 189/18/7 188/15/7
f 164/17/1 165/19/1 190/20/1 189/18/1
f 165/19/8 166/21/9 191/22/10 190/20/8
f 166/21/9 167/23/11 192/24/11 191/22/10
f 167/23/11 168/25/12 193/26/12 192/24/11
f 168/25/12 169/27/13 194/28/13 193/26/12
f 169/27/13 170/29/14 195/30/14 194/28/13
f 170/29/14 171/31/15 196/32/15 195/30/14
f 171/31/15 172/33/16 197/34/16 196/32/15
f 172/33/16 173/35/17 198/36/17 197/34/16
f 173/35/17 174/37/18 199/38/18 198/36/17
f 174/37/18 175/39/19 200/40/19 199/38/18
f 175/39/20 176/41/20 201/42/20 200/40/20
f 176/41/21 177/43/22 202/44/23 201/42/21
f 177/43/22 178/45/24 203/46/25 202/44/23
f 178/45/24 179/47/26 204/48/26 203/46/25
f 179/47/26 180/49/27 205/50/27 204/48/26
f 180/49/27 181/51/28 206/52/28 205/50/27
f 181/51/28 182/53/29 207/54/29 206/52/28
f 182/53/1 183/55/1 208/56/1 207/54/1
f 183/55/30 159/5/2 184/8/2 208/56/30
f 30/57/31 31/58/32 56/59/32 55/60/31
f 31/58/32 32/61/33 57/62/33 56/59/32
f 32/61/33 33/63/5 58/64/5 57/62/33
f 33/65/34 34/66/34 59/67/34 58/68/34
f 34/66/35 35/69/35 60/70/35 59/67/35
f 35/69/1 36/71/1 61/72/1 60/70/1
f 36/71/36 37/73/37 62/74/38 61/72/36
f 37/73/37 38/75/39 63/76/39 62/74/38
f 38/75/39 39/77/40 64/78/40 63/76/39
f 39/77/40 40/79/41 65/80/41 64/78/40
f 40/79/41 41/81/42 66/82/42 65/80/41
f 41/81/42 42/83/43 67/84/43 66/82/42
f 42/83/43 43/85/44 68/86/44 67/84/43
f 43/85/44 44/87/45 69/88/45 68/86/44
f 44/87/45 45/89/46 70/90/46 69/88/45
f 45/89/46 46/91/47 71/92/47 70/90/46
f 46/91/48 47/93/48 72/94/48 71/92/48
f 47/93/49 48/95/50 73/96/51 72/94/49
f 48/95/50 49/97/52 74/98/53 73/96/51
f 49/97/52 50/99/54 75/100/54 74/98/53
f 50/99/54 51/101/55 76/102/55 75/100/54
f 51/101/55 52/103/56 77/104/56 76/102/55
s 0
f 52/103/57 53/105/57 78/106/57 77/104/57
s 1
f 53/105/1 54/107/1 79/108/1 78/106/1
f 54/107/58 30/57/31 55/60/31 79/108/58
f 109/109/59 110/110/60 135/111/61 134/112/62
f 110/110/60 111/113/63 136/114/63 135/111/61
f 111/113/63 112/115/5 137/116/5 136/114/63
f 112/117/64 113/118/64 138/119/64 137/120/64
f 113/118/30 114/121/30 139/122/30 138/119/30
f 114/121/1 115/123/1 140/124/1 139/122/1
f 115/123/65 116/125/66 141/126/66 140/124/65
f 116/125/66 117/127/67 142/128/67 141/126/66
f 117/127/67 118/129/68 143/130/69 142/128/67
f 118/129/68 119/131/70 144/132/70 143/130/69
f 119/131/70 120/133/71 145/134/71 144/132/70
f 120/133/71 121/135/72 146/136/72 145/134/71
f 121/135/72 122/137/73 147/138/73 146/136/72
f 122/137/73 123/139/74 148/140/74 147/138/73
f 123/139/74 124/141/75 149/142/75 148/140/74
f 124/141/75 125/143/76 150/144/76 149/142/75
f 125/143/77 126/145/77 151/146/77 150/144/77
f 126/145/78 127/147/79 152/148/80 151/146/78
f 127/147/79 128/149/81 153/150/82 152/148/80
f 128/149/81 129/151/83 154/152/83 153/150/82
f 129/151/83 130/153/84 155/154/84 154/152/83
f 130/153/84 131/155/85 156/156/85 155/154/84
f 131/155/85 132/157/86 157/158/86 156/156/85
f 132/157/1 133/159/1 158/160/1 157/158/1
f 133/159/7 109/109/59 134/112/62 158/160/7
f 80/161/87 81/162/88 6/163/89 5/164/87
f 81/162/88 82/165/90 7/166/90 6/163/89
f 82/165/90 83/167/5 8/168/5 7/166/90
f 83/169/91 84/170/91 9/171/91 8/172/91
f 84/170/58 85/173/58 10/174/58 9/171/58
f 85/173/1 86/175/1 11/176/1 10/174/1
f 86/175/92 87/177/93 12/178/94 11/176/92
f 87/177/93 88/179/95 13/180/95 12/178/94
f 88/179/95 89/181/96 14/182/96 13/180/95
f 89/181/96 90/183/97 15/184/97 14/182/96
f 90/183/97 91/185/98 16/186/98 15/184/97
f 91/185/98 92/187/99 17/188/99 16/186/98
f 92/187/99 93/189/100 18/190/100 17/188/99
f 93/189/100 94/191/101 19/192/101 18/190/100
f 94/191/101 95/193/102 20/194/102 19/192/101
f 95/193/102 96/195/103 21/196/103 20/194/102
f 96/195/104 97/197/104 22/198/104 21/196/104
f 97/197/105 98/199/106 23/200/106 22/198/105
f 98/199/106 99/201/107 24/202/107 23/200/106
f 99/201/107 100/203/108 25/204/108 24/202/107
f 100/203/108 101/205/109 26/206/109 25/204/108
f 101/205/109 102/207/110 27/208/110 26/206/109
f 102/207/110 103/209/111 28/210/111 27/208/110
f 103/209/1 104/211/1 29/212/1 28/210/1
f 104/211/35 80/161/87 5/164/87 29/212/35
f 105/213/5 106/214/5 108/215/5 107/216/5
